<svg width="16" height="16" viewBox="0 0 16 16" fill="none" xmlns="http://www.w3.org/2000/svg">
<path d="M13.3333 5.50004V12C13.3333 14 12.14 14.6667 10.6667 14.6667H5.33332C3.85999 14.6667 2.66666 14 2.66666 12V5.50004C2.66666 3.33337 3.85999 2.83337 5.33332 2.83337C5.33332 3.24671 5.49999 3.62004 5.77332 3.89337C6.04666 4.16671 6.41999 4.33337 6.83332 4.33337H9.16666C9.99332 4.33337 10.6667 3.66004 10.6667 2.83337C12.14 2.83337 13.3333 3.33337 13.3333 5.50004Z" stroke="#2B2B2B" stroke-linecap="round" stroke-linejoin="round"/>
<path d="M5.33334 8.66671H8.00001M5.33334 11.3334H10.6667M10.6667 2.83337C10.6667 3.66004 9.99334 4.33337 9.16668 4.33337H6.83334C6.42001 4.33337 6.04668 4.16671 5.77334 3.89337C5.50001 3.62004 5.33334 3.24671 5.33334 2.83337C5.33334 2.00671 6.00668 1.33337 6.83334 1.33337H9.16668C9.58001 1.33337 9.95334 1.50004 10.2267 1.77337C10.5 2.04671 10.6667 2.42004 10.6667 2.83337Z" stroke="#2B2B2B" stroke-linecap="round" stroke-linejoin="round"/>
</svg>
