<svg width="17" height="17" viewBox="0 0 17 17" fill="none" xmlns="http://www.w3.org/2000/svg">
<path d="M4.25 6.37496V1.41663M12.75 6.37496V1.41663M8.5 2.83329V1.41663M9.42084 5.74454L10.3558 7.61454C10.4833 7.86954 10.8233 8.12454 11.1067 8.16704L12.7996 8.45038C13.8833 8.63454 14.1383 9.41371 13.3592 10.1929L12.0417 11.5104C11.8221 11.73 11.6946 12.162 11.7654 12.4737L12.1408 14.11C12.4383 15.3991 11.7513 15.902 10.6108 15.2291L9.02417 14.287C8.73375 14.117 8.26625 14.117 7.97584 14.287L6.38917 15.2291C5.24875 15.902 4.56167 15.3991 4.85917 14.11L5.23458 12.4737C5.30542 12.1691 5.17792 11.737 4.95834 11.5104L3.64083 10.1929C2.86167 9.41371 3.11667 8.62746 4.20042 8.45038L5.89333 8.16704C6.17667 8.11746 6.51667 7.86954 6.64417 7.61454L7.57917 5.74454C8.08208 4.73163 8.91792 4.73163 9.42084 5.74454V5.74454Z" stroke="#2B2B2B" stroke-linecap="round" stroke-linejoin="round"/>
</svg>
