<svg width="16" height="16" viewBox="0 0 16 16" fill="none" xmlns="http://www.w3.org/2000/svg">
<path d="M12.6667 6.00004C12.6667 6.96671 12.38 7.85337 11.8867 8.59337C11.5252 9.13254 11.0549 9.59017 10.5062 9.93689C9.95738 10.2836 9.34217 10.5118 8.70001 10.6067C8.47334 10.6467 8.24001 10.6667 8.00001 10.6667C7.76001 10.6667 7.52668 10.6467 7.30001 10.6067C6.65785 10.5118 6.04264 10.2836 5.49386 9.93689C4.94507 9.59017 4.47484 9.13254 4.11334 8.59337C3.60155 7.82558 3.33001 6.92277 3.33334 6.00004C3.33334 3.42004 5.42001 1.33337 8.00001 1.33337C10.58 1.33337 12.6667 3.42004 12.6667 6.00004Z" stroke="#2B2B2B" stroke-linecap="round" stroke-linejoin="round"/>
<path d="M14.1667 12.3133L13.0667 12.5733C12.82 12.6333 12.6267 12.82 12.5734 13.0666L12.34 14.0466C12.3114 14.1669 12.2499 14.2769 12.1624 14.3642C12.0748 14.4516 11.9647 14.5129 11.8444 14.5412C11.724 14.5696 11.5981 14.5639 11.4808 14.5248C11.3635 14.4858 11.2593 14.4148 11.18 14.32L8.00003 10.6666L4.82003 14.3266C4.7407 14.4215 4.63656 14.4924 4.51924 14.5315C4.40192 14.5706 4.27605 14.5762 4.15569 14.5479C4.03533 14.5195 3.92523 14.4582 3.8377 14.3709C3.75016 14.2836 3.68865 14.1736 3.66003 14.0533L3.42669 13.0733C3.39833 12.9534 3.33717 12.8437 3.25004 12.7566C3.16291 12.6695 3.05326 12.6083 2.93336 12.58L1.83336 12.32C1.71811 12.2923 1.61227 12.2346 1.52669 12.1526C1.4411 12.0706 1.37884 11.9674 1.34628 11.8534C1.31373 11.7395 1.31204 11.6189 1.3414 11.5041C1.37075 11.3893 1.4301 11.2843 1.51336 11.2L4.11336 8.59996C4.47486 9.13912 4.94509 9.59675 5.49387 9.94347C6.04266 10.2902 6.65787 10.5183 7.30003 10.6133C7.52669 10.6533 7.76003 10.6733 8.00003 10.6733C8.24003 10.6733 8.47336 10.6533 8.70003 10.6133C10.0267 10.42 11.1667 9.66663 11.8867 8.59996L14.4867 11.2C14.8534 11.56 14.6734 12.1933 14.1667 12.3133V12.3133ZM8.38669 3.98663L8.78003 4.77329C8.83336 4.87996 8.97336 4.98663 9.10003 5.00663L9.81336 5.12663C10.2667 5.19996 10.3734 5.53329 10.0467 5.85996L9.49336 6.41329C9.40003 6.50663 9.34669 6.68663 9.38003 6.81996L9.54003 7.50663C9.66669 8.04663 9.38003 8.25996 8.90003 7.97329L8.23336 7.57996C8.16566 7.54383 8.0901 7.52494 8.01336 7.52494C7.93662 7.52494 7.86106 7.54383 7.79336 7.57996L7.12669 7.97329C6.64669 8.25329 6.36002 8.04663 6.48669 7.50663L6.64669 6.81996C6.67336 6.69329 6.62669 6.50663 6.53336 6.41329L5.98003 5.85996C5.65336 5.53329 5.76003 5.20663 6.21336 5.12663L6.92669 5.00663C7.04669 4.98663 7.18669 4.87996 7.24003 4.77329L7.63336 3.98663C7.82669 3.55996 8.17336 3.55996 8.38669 3.98663V3.98663Z" stroke="#2B2B2B" stroke-linecap="round" stroke-linejoin="round"/>
</svg>
